<?xml version="1.0" encoding="utf-8"?>
<!-- Generator: Adobe Illustrator 24.0.0, SVG Export Plug-In . SVG Version: 6.00 Build 0)  -->
<svg version="1.1" id="Layer_1" xmlns="http://www.w3.org/2000/svg" xmlns:xlink="http://www.w3.org/1999/xlink" x="0px" y="0px"
	 viewBox="0 0 1080 1080" style="enable-background:new 0 0 1080 1080;" xml:space="preserve">
<style type="text/css">
	.st0{fill:#FAB023;}
	.st1{fill:#463093;}
</style>
<g>
	<path id="Izquierda" class="st0" d="M539.6,600.8v-0.2L206,379.2H15.3l166.6,185.5l129.3,50.5l44.2,155.2l141.9,104.7h84.5
		l141.9-104.7l11.3-39.7L539.6,600.8z M489.1,690.2l-19.6,11.4h-73.8l-18.3-11.4l-8.2-41.6l16.6-11.5l103.3,40.3V690.2z
		 M554.1,762.1h-29l-13.9-20.2h56.8L554.1,762.1z"/>
	<polygon id="derecha" class="st1" points="1064.1,379.2 897.6,564.7 768.2,615.1 744.7,697.8 539.9,561.8 539.6,561.6 264.7,379.2 
		265.1,379.2 305,323.3 348.9,323.3 419.6,205.4 659.9,205.4 730.5,323.3 774.4,323.3 814.3,379.2 	"/>
</g>
</svg>
